# xmcd
#
# Track frame offsets: 
#        150
#        18035
#        30355
#        43512
#        56792
#        70900
#        82487
#        98087
#        111072
#
# Disc length: 1983 seconds
#
# Revision: 0
# Processed by: cddbd v1.5.2PL0 Copyright (c) Steve Scherf et al.
# Submitted via: ExactAudioCopy v1.0b1
#
DISCID=6d07bd09
DTITLE=Ben Harper - Both Sides of the gun
DYEAR=2006
DGENRE=Blues
TTITLE0=Better Way
TTITLE1=Both sides of the gun
TTITLE2=Engraved Invitation
TTITLE3=Black Rain
TTITLE4=Gather round the stone
TTITLE5=Please Don´t talk about murder while I´m eating
TTITLE6=Get it like you like it
TTITLE7=the way you found me
TTITLE8=serve your soul
EXTD=
EXTT0=
EXTT1=
EXTT2=
EXTT3=
EXTT4=
EXTT5=
EXTT6=
EXTT7=
EXTT8=
PLAYORDER=
